<svg width="179" height="70" viewBox="0 0 179 70" fill="none" xmlns="http://www.w3.org/2000/svg">
<path d="M83.7071 54.7071C84.0976 54.3166 84.0976 53.6834 83.7071 53.2929L77.3431 46.9289C76.9526 46.5384 76.3195 46.5384 75.9289 46.9289C75.5384 47.3195 75.5384 47.9526 75.9289 48.3431L81.5858 54L75.9289 59.6569C75.5384 60.0474 75.5384 60.6805 75.9289 61.0711C76.3195 61.4616 76.9526 61.4616 77.3431 61.0711L83.7071 54.7071ZM4 55L83 55V53L4 53L4 55Z" fill="#EA580C"/>
<path d="M9.55078 43H3.59375V14.4453H19.9609V19.4062H9.55078V26.7695H19.2383V31.7109H9.55078V43ZM24.8242 15.5195C24.8242 13.5794 25.9049 12.6094 28.0664 12.6094C30.2279 12.6094 31.3086 13.5794 31.3086 15.5195C31.3086 16.444 31.0352 17.1667 30.4883 17.6875C29.9544 18.1953 29.1471 18.4492 28.0664 18.4492C25.9049 18.4492 24.8242 17.4727 24.8242 15.5195ZM31.0352 43H25.0781V21.1641H31.0352V43ZM57.4609 43H51.5039V30.2461C51.5039 28.6706 51.224 27.4922 50.6641 26.7109C50.1042 25.9167 49.2122 25.5195 47.9883 25.5195C46.3216 25.5195 45.1172 26.0794 44.375 27.1992C43.6328 28.306 43.2617 30.1484 43.2617 32.7266V43H37.3047V21.1641H41.8555L42.6562 23.957H42.9883C43.6523 22.9023 44.5638 22.1081 45.7227 21.5742C46.8945 21.0273 48.2227 20.7539 49.707 20.7539C52.2461 20.7539 54.1732 21.444 55.4883 22.8242C56.8034 24.1914 57.4609 26.1706 57.4609 28.7617V43ZM70.5078 43.3906C67.9427 43.3906 65.9245 42.3945 64.4531 40.4023C62.9948 38.4102 62.2656 35.6497 62.2656 32.1211C62.2656 28.5404 63.0078 25.7539 64.4922 23.7617C65.9896 21.7565 68.0469 20.7539 70.6641 20.7539C73.4115 20.7539 75.5078 21.8216 76.9531 23.957H77.1484C76.849 22.3294 76.6992 20.8776 76.6992 19.6016V12.6094H82.6758V43H78.1055L76.9531 40.168H76.6992C75.3451 42.3164 73.2812 43.3906 70.5078 43.3906ZM72.5977 38.6445C74.1211 38.6445 75.2344 38.2018 75.9375 37.3164C76.6536 36.431 77.0443 34.9271 77.1094 32.8047V32.1602C77.1094 29.8164 76.7448 28.1367 76.0156 27.1211C75.2995 26.1055 74.1276 25.5977 72.5 25.5977C71.1719 25.5977 70.1367 26.1641 69.3945 27.2969C68.6654 28.4167 68.3008 30.0508 68.3008 32.1992C68.3008 34.3477 68.6719 35.9622 69.4141 37.043C70.1562 38.1107 71.2174 38.6445 72.5977 38.6445Z" fill="#16A34A"/>
<path d="M101.723 35.0742C99.444 35.0742 97.6797 35.9336 96.4297 37.6523C95.1797 39.3581 94.5547 41.7409 94.5547 44.8008C94.5547 51.168 96.944 54.3516 101.723 54.3516C103.728 54.3516 106.156 53.8503 109.008 52.8477V57.9258C106.664 58.9023 104.047 59.3906 101.156 59.3906C97.0026 59.3906 93.8255 58.1341 91.625 55.6211C89.4245 53.0951 88.3242 49.4753 88.3242 44.7617C88.3242 41.793 88.8646 39.1953 89.9453 36.9688C91.026 34.7292 92.5755 33.0169 94.5938 31.832C96.625 30.6341 99.0013 30.0352 101.723 30.0352C104.496 30.0352 107.283 30.7057 110.082 32.0469L108.129 36.9688C107.061 36.4609 105.987 36.0182 104.906 35.6406C103.826 35.263 102.764 35.0742 101.723 35.0742ZM134.789 59H128.832V46.2461C128.832 43.0951 127.66 41.5195 125.316 41.5195C123.65 41.5195 122.445 42.0859 121.703 43.2188C120.961 44.3516 120.59 46.1875 120.59 48.7266V59H114.633V28.6094H120.59V34.8008C120.59 35.2826 120.544 36.4154 120.453 38.1992L120.316 39.957H120.629C121.957 37.8216 124.066 36.7539 126.957 36.7539C129.522 36.7539 131.469 37.444 132.797 38.8242C134.125 40.2044 134.789 42.1836 134.789 44.7617V59ZM149.965 40.9922C148.702 40.9922 147.712 41.3958 146.996 42.2031C146.28 42.9974 145.87 44.1302 145.766 45.6016H154.125C154.099 44.1302 153.715 42.9974 152.973 42.2031C152.23 41.3958 151.228 40.9922 149.965 40.9922ZM150.805 59.3906C147.289 59.3906 144.542 58.4206 142.562 56.4805C140.583 54.5404 139.594 51.793 139.594 48.2383C139.594 44.5794 140.505 41.7539 142.328 39.7617C144.164 37.7565 146.697 36.7539 149.926 36.7539C153.012 36.7539 155.414 37.6328 157.133 39.3906C158.852 41.1484 159.711 43.5768 159.711 46.6758V49.5664H145.629C145.694 51.2591 146.195 52.5807 147.133 53.5312C148.07 54.4818 149.385 54.957 151.078 54.957C152.393 54.957 153.637 54.8203 154.809 54.5469C155.98 54.2734 157.204 53.8372 158.48 53.2383V57.8477C157.439 58.3685 156.326 58.7526 155.141 59C153.956 59.2604 152.51 59.3906 150.805 59.3906ZM176.625 41.6367H171.469V59H165.512V41.6367H162.23V38.7656L165.512 37.1641V35.5625C165.512 33.0755 166.124 31.2591 167.348 30.1133C168.572 28.9674 170.531 28.3945 173.227 28.3945C175.284 28.3945 177.113 28.7005 178.715 29.3125L177.191 33.6875C175.993 33.3099 174.887 33.1211 173.871 33.1211C173.025 33.1211 172.413 33.375 172.035 33.8828C171.658 34.3776 171.469 35.0156 171.469 35.7969V37.1641H176.625V41.6367Z" fill="#EA580C"/>
<path d="M177.707 12.7071C178.098 12.3166 178.098 11.6834 177.707 11.2929L171.343 4.92893C170.953 4.53841 170.319 4.53841 169.929 4.92893C169.538 5.31946 169.538 5.95262 169.929 6.34315L175.586 12L169.929 17.6569C169.538 18.0474 169.538 18.6805 169.929 19.0711C170.319 19.4616 170.953 19.4616 171.343 19.0711L177.707 12.7071ZM90 13L177 13V11L90 11V13Z" fill="#16A34A"/>
</svg>
